{"title":"Midnight in Paris [2011] 720p BRRip XviD AC3 - CODY","uid":6737379,"size":1685637538,"categoryP":"video","categoryS":"hd___movies","magnet":"?xt=urn:btih:88c6c1bbe14a2e1408b69860a158b7ae7806c742&amp;dn=Midnight+in+Paris+%5B2011%5D+720p+BRRip+XviD+AC3+-+CODY&amp;tr=udp%3A%2F%2Ftracker.openbittorrent.com%3A80&amp;tr=udp%3A%2F%2Fopen.demonii.com%3A1337&amp;tr=udp%3A%2F%2Ftracker.coppersurfer.tk%3A6969&amp;tr=udp%3A%2F%2Fexodus.desync.com%3A6969","seeders":2,"leechers":0,"uploader":"CODYBOSS1969","files":4,"time":1318383348,"description":"General\nComplete name                    : Midnight in Paris [2011] 720p BRRip XviD AC3 - CODY.avi\nFormat                           : AVI\nFormat/Info                      : Audio Video Interleave\nFile size                        : 1.57 GiB\nDuration                         : 1h 33mn\nOverall bit rate                 : 2 392 Kbps\nWriting application              : VirtualDubMod 1.5.10.2 (build 2540/release)\nWriting library                  : VirtualDubMod build 2540/release\n\nVideo\nID                               : 0\nFormat                           : MPEG-4 Visual\nFormat profile                   : Advanced Simple@L5\nFormat settings, BVOP            : 4\nFormat settings, QPel            : No\nFormat settings, GMC             : No warppoints\nFormat settings, Matrix          : Default (H.263)\nCodec ID                         : XVID\nCodec ID/Hint                    : XviD\nDuration                         : 1h 33mn\nBit rate                         : 1 999 Kbps\nWidth                            : 1 280 pixels\nHeight                           : 688 pixels\nDisplay aspect ratio             : 1.860\nFrame rate                       : 23.976 fps\nColor space                      : YUV\nChroma subsampling               : 4:2:0\nBit depth                        : 8 bits\nScan type                        : Progressive\nCompression mode                 : Lossy\nBits/(Pixel*Frame)               : 0.095\nStream size                      : 1.31 GiB (84%)\nWriting library                  : XviD 1.2.0.dev47 (UTC 2006-11-01)\n\nAudio\nID                               : 1\nFormat                           : AC-3\nFormat/Info                      : Audio Coding 3\nMode extension                   : CM (complete main)\nCodec ID                         : 2000\nDuration                         : 1h 33mn\nBit rate mode                    : Constant\nBit rate                         : 384 Kbps\nChannel(s)                       : 2 channels\nChannel positions                : Front: L R\nSampling rate                    : 48.0 KHz\nBit depth                        : 16 bits\nCompression mode                 : Lossy\nStream size                      : 258 MiB (16%)\nAlignment                        : Split accross interleaves\nInterleave, duration             : 42 ms (1.00 video frame)\nInterleave, preload duration     : 500 ms\n\n\n\nIMDB link:                         &lt;a href=&quot; http://www.imdb.com/title/tt1605783/&quot; rel=&quot;nofollow&quot; target=&quot;_NEW&quot;&gt; http://www.imdb.com/title/tt1605783/&lt;/a&gt;\n\n\n\n\nSubtitles included               : Romanian\n\n\n\n\nPlease seed at least 1,5:1. This way this torrent has a chance to survive !\n\n\n\n\nThanks. ENJOY !!","torrent":{"xt":"urn:btih:88c6c1bbe14a2e1408b69860a158b7ae7806c742","amp;dn":"Midnight+in+Paris+%5B2011%5D+720p+BRRip+XviD+AC3+-+CODY","amp;tr":["udp%3A%2F%2Ftracker.openbittorrent.com%3A80","udp%3A%2F%2Fopen.demonii.com%3A1337","udp%3A%2F%2Ftracker.coppersurfer.tk%3A6969","udp%3A%2F%2Fexodus.desync.com%3A6969"],"infoHash":"88c6c1bbe14a2e1408b69860a158b7ae7806c742","infoHashBuffer":{"type":"Buffer","data":[136,198,193,187,225,74,46,20,8,182,152,96,161,88,183,174,120,6,199,66]},"announce":[],"urlList":[]}}